<?xml version="1.0" encoding="UTF-8" standalone="no"?>
<!DOCTYPE svg PUBLIC "-//W3C//DTD SVG 1.1//EN" "http://www.w3.org/Graphics/SVG/1.1/DTD/svg11.dtd">
<svg width="100%" height="100%" viewBox="0 0 2481 3508" version="1.1" xmlns="http://www.w3.org/2000/svg" xmlns:xlink="http://www.w3.org/1999/xlink" xml:space="preserve" xmlns:serif="http://www.serif.com/" style="fill-rule:evenodd;clip-rule:evenodd;stroke-linejoin:round;stroke-miterlimit:2;">
    <g transform="matrix(1.07327e-16,1.75279,-1.75279,1.07327e-16,4347.96,-7.26155)">
        <g transform="matrix(0.891806,0,0,0.891806,-161.232,384.053)">
            <path d="M749.033,1808.78C707.777,1808.78 675.826,1799.47 653.179,1780.86C630.533,1762.25 619.21,1735.91 619.21,1701.82L679.749,1701.82C679.749,1718.87 685.803,1732.21 697.911,1741.85C710.019,1751.49 727.06,1756.31 749.033,1756.31L778.63,1756.31C801.052,1756.31 818.429,1751.38 830.761,1741.51C843.093,1731.65 849.259,1717.74 849.259,1699.81C849.259,1667.97 834.685,1650.03 805.537,1645.99L703.292,1631.19C678.18,1627.61 658.673,1617.18 644.771,1599.92C630.87,1582.65 623.919,1559.89 623.919,1531.64C623.919,1499.35 635.018,1474.02 657.215,1455.63C679.413,1437.25 710.019,1428.05 749.033,1428.05L778.63,1428.05C814.505,1428.05 843.766,1436.91 866.412,1454.62C889.058,1472.34 901.278,1495.54 903.072,1524.24L841.86,1524.24C840.963,1511.24 834.797,1500.48 823.362,1491.95C811.927,1483.43 797.016,1479.17 778.63,1479.17L749.033,1479.17C728.405,1479.17 712.261,1483.88 700.602,1493.3C688.942,1502.72 683.113,1515.5 683.113,1531.64C683.113,1557.65 694.996,1572.45 718.764,1576.04L814.281,1589.49C877.063,1598.46 908.453,1635.23 908.453,1699.81C908.453,1734.34 897.13,1761.13 874.484,1780.19C851.838,1799.25 819.887,1808.78 778.63,1808.78L749.033,1808.78Z" style="fill:rgb(75,83,32);fill-rule:nonzero;"/>
        </g>
        <g transform="matrix(0.891806,0,0,0.891806,-188.492,396.256)">
            <path d="M1312.05,1759.67L1022.81,1615.05L1022.81,1547.79L1312.05,1403.16L1312.05,1461.68L1103.52,1563.93C1095,1567.97 1087.04,1571.44 1079.64,1574.36C1072.25,1577.27 1066.75,1579.18 1063.16,1580.07C1067.2,1580.97 1073.03,1582.88 1080.65,1585.79C1088.28,1588.71 1095.9,1592.18 1103.52,1596.22L1312.05,1699.13L1312.05,1759.67Z" style="fill:rgb(75,83,32);fill-rule:nonzero;"/>
        </g>
        <g transform="matrix(0.891806,0,0,0.891806,502.482,-215.865)">
            <path d="M749.033,2481.44C707.777,2481.44 675.826,2472.13 653.179,2453.52C630.533,2434.91 619.21,2408.56 619.21,2374.48L679.749,2374.48C679.749,2391.52 685.803,2404.87 697.911,2414.51C710.019,2424.15 727.06,2428.97 749.033,2428.97L778.63,2428.97C801.052,2428.97 818.429,2424.04 830.761,2414.17C843.093,2404.3 849.259,2390.4 849.259,2372.47C849.259,2340.63 834.685,2322.69 805.537,2318.65L703.292,2303.85C678.18,2300.27 658.673,2289.84 644.771,2272.58C630.87,2255.31 623.919,2232.55 623.919,2204.3C623.919,2172.01 635.018,2146.68 657.215,2128.29C679.413,2109.9 710.019,2100.71 749.033,2100.71L778.63,2100.71C814.505,2100.71 843.766,2109.57 866.412,2127.28C889.058,2144.99 901.278,2168.2 903.072,2196.9L841.86,2196.9C840.963,2183.9 834.797,2173.13 823.362,2164.61C811.927,2156.09 797.016,2151.83 778.63,2151.83L749.033,2151.83C728.405,2151.83 712.261,2156.54 700.602,2165.96C688.942,2175.38 683.113,2188.16 683.113,2204.3C683.113,2230.31 694.996,2245.11 718.764,2248.7L814.281,2262.15C877.063,2271.12 908.453,2307.89 908.453,2372.47C908.453,2406.99 897.13,2433.79 874.484,2452.85C851.838,2471.91 819.887,2481.44 778.63,2481.44L749.033,2481.44Z" style="fill:rgb(75,83,32);fill-rule:nonzero;"/>
        </g>
        <g transform="matrix(0.891806,0,0,0.891806,473.339,-210.313)">
            <path d="M1204.42,2476.05C1173.93,2476.05 1149.49,2467.2 1131.1,2449.48C1112.72,2431.77 1103.52,2408.12 1103.52,2378.52L1103.52,2161.25L997.244,2161.25L997.244,2106.09L1103.52,2106.09L1103.52,2001.83L1164.06,2001.83L1164.06,2106.09L1315.41,2106.09L1315.41,2161.25L1164.06,2161.25L1164.06,2378.52C1164.06,2391.08 1167.76,2401.28 1175.16,2409.12C1182.56,2416.97 1192.32,2420.9 1204.42,2420.9L1312.05,2420.9L1312.05,2476.05L1204.42,2476.05Z" style="fill:rgb(75,83,32);fill-rule:nonzero;"/>
        </g>
    </g>
</svg>
